# MagicaVoxel @ Ephtracy

# group
o 

# material
mtllib keyboard.mtl
usemtl palette

# normals
vn -1 0 0
vn 1 0 0
vn 0 0 1
vn 0 0 -1
vn 0 -1 0
vn 0 1 0

# texcoords
vt 0.958984 0.5
vt 0.994141 0.5

# verts
v -0.4 0 1.3
v -0.4 0 -1.3
v -0.4 0.1 1.2
v -0.4 0.1 -1.2
v -0.4 0.3 1.3
v -0.4 0.3 1.2
v -0.4 0.3 -1.2
v -0.4 0.3 -1.3
v -0.3 0.1 1.2
v -0.3 0.1 -1.2
v -0.3 0.2 1.2
v -0.3 0.2 -1.2
v -0.2 0 1.1
v -0.2 0 1
v -0.2 0 0.8
v -0.2 0 0.7
v -0.2 0.1 1.1
v -0.2 0.1 1
v -0.2 0.1 0.8
v -0.2 0.1 0.7
v -0.2 0.2 1.1
v -0.2 0.2 1
v -0.2 0.2 0.9
v -0.2 0.2 0.8
v -0.2 0.2 0.7
v -0.2 0.2 0.6
v -0.2 0.2 0.4
v -0.2 0.2 0.3
v -0.2 0.2 0.2
v -0.2 0.2 0.1
v -0.2 0.2 -0.0999999
v -0.2 0.2 -0.2
v -0.2 0.2 -0.3
v -0.2 0.2 -0.4
v -0.2 0.2 -0.5
v -0.2 0.2 -0.6
v -0.2 0.2 -0.8
v -0.2 0.2 -0.9
v -0.2 0.2 -1
v -0.2 0.2 -1.1
v -0.2 0.3 1.1
v -0.2 0.3 1
v -0.2 0.3 0.9
v -0.2 0.3 0.8
v -0.2 0.3 0.7
v -0.2 0.3 0.6
v -0.2 0.3 0.4
v -0.2 0.3 0.3
v -0.2 0.3 0.2
v -0.2 0.3 0.1
v -0.2 0.3 -0.0999999
v -0.2 0.3 -0.2
v -0.2 0.3 -0.3
v -0.2 0.3 -0.4
v -0.2 0.3 -0.5
v -0.2 0.3 -0.6
v -0.2 0.3 -0.8
v -0.2 0.3 -0.9
v -0.2 0.3 -1
v -0.2 0.3 -1.1
v 0.2 0.1 -1
v 0.2 0.1 -1.1
v 0.2 0.2 1.2
v 0.2 0.2 1.1
v 0.2 0.2 1
v 0.2 0.2 0.9
v 0.2 0.2 0.8
v 0.2 0.2 0.7
v 0.2 0.2 0.6
v 0.2 0.2 0.4
v 0.2 0.2 0.3
v 0.2 0.2 0.2
v 0.2 0.2 0.1
v 0.2 0.2 -0.0999999
v 0.2 0.2 -0.2
v 0.2 0.2 -0.3
v 0.2 0.2 -0.4
v 0.2 0.2 -0.5
v 0.2 0.2 -0.6
v 0.2 0.2 -0.8
v 0.2 0.2 -0.9
v 0.2 0.2 -1
v 0.2 0.2 -1.1
v 0.2 0.2 -1.2
v 0.2 0.3 1.2
v 0.2 0.3 1.1
v 0.2 0.3 1
v 0.2 0.3 0.9
v 0.2 0.3 0.8
v 0.2 0.3 0.7
v 0.2 0.3 0.6
v 0.2 0.3 0.4
v 0.2 0.3 0.3
v 0.2 0.3 0.2
v 0.2 0.3 0.1
v 0.2 0.3 -0.0999999
v 0.2 0.3 -0.2
v 0.2 0.3 -0.3
v 0.2 0.3 -0.4
v 0.2 0.3 -0.5
v 0.2 0.3 -0.6
v 0.2 0.3 -0.8
v 0.2 0.3 -0.9
v 0.2 0.3 -1
v 0.2 0.3 -1.1
v 0.2 0.3 -1.2
v -0.3 0 1.1
v -0.3 0 1
v -0.3 0 0.8
v -0.3 0 0.7
v -0.3 0.1 1.1
v -0.3 0.1 1
v -0.3 0.1 0.8
v -0.3 0.1 0.7
v -0.2 0.1 -1
v -0.2 0.1 -1.1
v -0.2 0.2 -1
v -0.2 0.2 -1.1
v 0.4 0 1.3
v 0.4 0 -1.3
v 0.4 0.3 1.3
v 0.4 0.3 -1.3
v -0.4 0 1.3
v -0.4 0.3 1.3
v 0.4 0 1.3
v 0.4 0.3 1.3
v -0.2 0.2 1.1
v -0.2 0.3 1.1
v 0.2 0.2 1.1
v 0.2 0.3 1.1
v -0.3 0 1
v -0.3 0.1 1
v -0.2 0 1
v -0.2 0.1 1
v -0.2 0.2 0.9
v -0.2 0.3 0.9
v 0.2 0.2 0.9
v 0.2 0.3 0.9
v -0.3 0 0.7
v -0.3 0.1 0.7
v -0.2 0 0.7
v -0.2 0.1 0.7
v -0.2 0.2 0.7
v -0.2 0.3 0.7
v 0.2 0.2 0.7
v 0.2 0.3 0.7
v -0.2 0.2 0.4
v -0.2 0.3 0.4
v 0.2 0.2 0.4
v 0.2 0.3 0.4
v -0.2 0.2 0.2
v -0.2 0.3 0.2
v 0.2 0.2 0.2
v 0.2 0.3 0.2
v -0.2 0.2 -0.0999999
v -0.2 0.3 -0.0999999
v 0.2 0.2 -0.0999999
v 0.2 0.3 -0.0999999
v -0.2 0.2 -0.3
v -0.2 0.3 -0.3
v 0.2 0.2 -0.3
v 0.2 0.3 -0.3
v -0.2 0.2 -0.5
v -0.2 0.3 -0.5
v 0.2 0.2 -0.5
v 0.2 0.3 -0.5
v -0.2 0.2 -0.8
v -0.2 0.3 -0.8
v 0.2 0.2 -0.8
v 0.2 0.3 -0.8
v -0.2 0.2 -1
v -0.2 0.3 -1
v 0.2 0.2 -1
v 0.2 0.3 -1
v -0.2 0.1 -1.1
v -0.2 0.2 -1.1
v 0.2 0.1 -1.1
v 0.2 0.2 -1.1
v -0.4 0.1 -1.2
v -0.4 0.3 -1.2
v -0.3 0.1 -1.2
v -0.3 0.2 -1.2
v 0.2 0.2 -1.2
v 0.2 0.3 -1.2
v -0.4 0.1 1.2
v -0.4 0.3 1.2
v -0.3 0.1 1.2
v -0.3 0.2 1.2
v 0.2 0.2 1.2
v 0.2 0.3 1.2
v -0.3 0 1.1
v -0.3 0.1 1.1
v -0.2 0 1.1
v -0.2 0.1 1.1
v -0.2 0.2 1
v -0.2 0.3 1
v 0.2 0.2 1
v 0.2 0.3 1
v -0.3 0 0.8
v -0.3 0.1 0.8
v -0.2 0 0.8
v -0.2 0.1 0.8
v -0.2 0.2 0.8
v -0.2 0.3 0.8
v 0.2 0.2 0.8
v 0.2 0.3 0.8
v -0.2 0.2 0.6
v -0.2 0.3 0.6
v 0.2 0.2 0.6
v 0.2 0.3 0.6
v -0.2 0.2 0.3
v -0.2 0.3 0.3
v 0.2 0.2 0.3
v 0.2 0.3 0.3
v -0.2 0.2 0.1
v -0.2 0.3 0.1
v 0.2 0.2 0.1
v 0.2 0.3 0.1
v -0.2 0.2 -0.2
v -0.2 0.3 -0.2
v 0.2 0.2 -0.2
v 0.2 0.3 -0.2
v -0.2 0.2 -0.4
v -0.2 0.3 -0.4
v 0.2 0.2 -0.4
v 0.2 0.3 -0.4
v -0.2 0.2 -0.6
v -0.2 0.3 -0.6
v 0.2 0.2 -0.6
v 0.2 0.3 -0.6
v -0.2 0.2 -0.9
v -0.2 0.3 -0.9
v 0.2 0.2 -0.9
v 0.2 0.3 -0.9
v -0.2 0.1 -1
v -0.2 0.2 -1
v 0.2 0.1 -1
v 0.2 0.2 -1
v -0.2 0.2 -1.1
v -0.2 0.3 -1.1
v 0.2 0.2 -1.1
v 0.2 0.3 -1.1
v -0.4 0 -1.3
v -0.4 0.3 -1.3
v 0.4 0 -1.3
v 0.4 0.3 -1.3
v -0.4 0 1.3
v 0.4 0 1.3
v -0.3 0 1.1
v -0.2 0 1.1
v -0.3 0 1
v -0.2 0 1
v -0.3 0 0.8
v -0.2 0 0.8
v -0.3 0 0.7
v -0.2 0 0.7
v -0.4 0 -1.3
v 0.4 0 -1.3
v -0.3 0.1 1.1
v -0.2 0.1 1.1
v -0.3 0.1 1
v -0.2 0.1 1
v -0.3 0.1 0.8
v -0.2 0.1 0.8
v -0.3 0.1 0.7
v -0.2 0.1 0.7
v -0.2 0.2 -1
v 0.2 0.2 -1
v -0.2 0.2 -1.1
v 0.2 0.2 -1.1
v -0.4 0.1 1.2
v -0.3 0.1 1.2
v -0.2 0.1 -1
v 0.2 0.1 -1
v -0.2 0.1 -1.1
v 0.2 0.1 -1.1
v -0.4 0.1 -1.2
v -0.3 0.1 -1.2
v -0.3 0.2 1.2
v 0.2 0.2 1.2
v -0.2 0.2 1.1
v 0.2 0.2 1.1
v -0.2 0.2 1
v 0.2 0.2 1
v -0.2 0.2 0.9
v 0.2 0.2 0.9
v -0.2 0.2 0.8
v 0.2 0.2 0.8
v -0.2 0.2 0.7
v 0.2 0.2 0.7
v -0.2 0.2 0.6
v 0.2 0.2 0.6
v -0.2 0.2 0.4
v 0.2 0.2 0.4
v -0.2 0.2 0.3
v 0.2 0.2 0.3
v -0.2 0.2 0.2
v 0.2 0.2 0.2
v -0.2 0.2 0.1
v 0.2 0.2 0.1
v -0.2 0.2 -0.0999999
v 0.2 0.2 -0.0999999
v -0.2 0.2 -0.2
v 0.2 0.2 -0.2
v -0.2 0.2 -0.3
v 0.2 0.2 -0.3
v -0.2 0.2 -0.4
v 0.2 0.2 -0.4
v -0.2 0.2 -0.5
v 0.2 0.2 -0.5
v -0.2 0.2 -0.6
v 0.2 0.2 -0.6
v -0.2 0.2 -0.8
v 0.2 0.2 -0.8
v -0.2 0.2 -0.9
v 0.2 0.2 -0.9
v -0.2 0.2 -1
v 0.2 0.2 -1
v -0.2 0.2 -1.1
v 0.2 0.2 -1.1
v -0.3 0.2 -1.2
v 0.2 0.2 -1.2
v -0.4 0.3 1.3
v 0.4 0.3 1.3
v -0.4 0.3 1.2
v 0.2 0.3 1.2
v -0.2 0.3 1.1
v 0.2 0.3 1.1
v -0.2 0.3 1
v 0.2 0.3 1
v -0.2 0.3 0.9
v 0.2 0.3 0.9
v -0.2 0.3 0.8
v 0.2 0.3 0.8
v -0.2 0.3 0.7
v 0.2 0.3 0.7
v -0.2 0.3 0.6
v 0.2 0.3 0.6
v -0.2 0.3 0.4
v 0.2 0.3 0.4
v -0.2 0.3 0.3
v 0.2 0.3 0.3
v -0.2 0.3 0.2
v 0.2 0.3 0.2
v -0.2 0.3 0.1
v 0.2 0.3 0.1
v -0.2 0.3 -0.0999999
v 0.2 0.3 -0.0999999
v -0.2 0.3 -0.2
v 0.2 0.3 -0.2
v -0.2 0.3 -0.3
v 0.2 0.3 -0.3
v -0.2 0.3 -0.4
v 0.2 0.3 -0.4
v -0.2 0.3 -0.5
v 0.2 0.3 -0.5
v -0.2 0.3 -0.6
v 0.2 0.3 -0.6
v -0.2 0.3 -0.8
v 0.2 0.3 -0.8
v -0.2 0.3 -0.9
v 0.2 0.3 -0.9
v -0.2 0.3 -1
v 0.2 0.3 -1
v -0.2 0.3 -1.1
v 0.2 0.3 -1.1
v -0.4 0.3 -1.2
v 0.2 0.3 -1.2
v -0.4 0.3 -1.3
v 0.4 0.3 -1.3

# faces
f 3/2/1 2/2/1 1/2/1
f 4/2/1 2/2/1 3/2/1
f 5/2/1 3/2/1 1/2/1
f 6/2/1 3/2/1 5/2/1
f 7/2/1 2/2/1 4/2/1
f 8/2/1 2/2/1 7/2/1
f 11/1/1 10/1/1 9/1/1
f 12/1/1 10/1/1 11/1/1
f 17/2/1 14/2/1 13/2/1
f 18/2/1 14/2/1 17/2/1
f 19/2/1 16/2/1 15/2/1
f 20/2/1 16/2/1 19/2/1
f 41/2/1 22/2/1 21/2/1
f 42/2/1 22/2/1 41/2/1
f 43/2/1 24/2/1 23/2/1
f 44/2/1 24/2/1 43/2/1
f 45/2/1 26/2/1 25/2/1
f 46/2/1 26/2/1 45/2/1
f 47/2/1 28/2/1 27/2/1
f 48/2/1 28/2/1 47/2/1
f 49/2/1 30/2/1 29/2/1
f 50/2/1 30/2/1 49/2/1
f 51/2/1 32/2/1 31/2/1
f 52/2/1 32/2/1 51/2/1
f 53/2/1 34/2/1 33/2/1
f 54/2/1 34/2/1 53/2/1
f 55/2/1 36/2/1 35/2/1
f 56/2/1 36/2/1 55/2/1
f 57/2/1 38/2/1 37/2/1
f 58/2/1 38/2/1 57/2/1
f 59/2/1 40/2/1 39/2/1
f 60/2/1 40/2/1 59/2/1
f 82/2/1 62/2/1 61/2/1
f 83/2/1 62/2/1 82/2/1
f 85/2/1 64/2/1 63/2/1
f 86/2/1 64/2/1 85/2/1
f 87/2/1 66/2/1 65/2/1
f 88/2/1 66/2/1 87/2/1
f 89/2/1 68/2/1 67/2/1
f 90/2/1 68/2/1 89/2/1
f 91/2/1 70/2/1 69/2/1
f 92/2/1 70/2/1 91/2/1
f 93/2/1 72/2/1 71/2/1
f 94/2/1 72/2/1 93/2/1
f 95/2/1 74/2/1 73/2/1
f 96/2/1 74/2/1 95/2/1
f 97/2/1 76/2/1 75/2/1
f 98/2/1 76/2/1 97/2/1
f 99/2/1 78/2/1 77/2/1
f 100/2/1 78/2/1 99/2/1
f 101/2/1 80/2/1 79/2/1
f 102/2/1 80/2/1 101/2/1
f 103/2/1 82/2/1 81/2/1
f 104/2/1 82/2/1 103/2/1
f 105/2/1 84/2/1 83/2/1
f 106/2/1 84/2/1 105/2/1
f 107/2/2 108/2/2 111/2/2
f 111/2/2 108/2/2 112/2/2
f 109/2/2 110/2/2 113/2/2
f 113/2/2 110/2/2 114/2/2
f 115/1/2 116/1/2 117/1/2
f 117/1/2 116/1/2 118/1/2
f 119/2/2 120/2/2 121/2/2
f 121/2/2 120/2/2 122/2/2
f 125/2/3 124/2/3 123/2/3
f 126/2/3 124/2/3 125/2/3
f 129/2/3 128/2/3 127/2/3
f 130/2/3 128/2/3 129/2/3
f 133/2/3 132/2/3 131/2/3
f 134/2/3 132/2/3 133/2/3
f 137/2/3 136/2/3 135/2/3
f 138/2/3 136/2/3 137/2/3
f 141/2/3 140/2/3 139/2/3
f 142/2/3 140/2/3 141/2/3
f 145/2/3 144/2/3 143/2/3
f 146/2/3 144/2/3 145/2/3
f 149/2/3 148/2/3 147/2/3
f 150/2/3 148/2/3 149/2/3
f 153/2/3 152/2/3 151/2/3
f 154/2/3 152/2/3 153/2/3
f 157/2/3 156/2/3 155/2/3
f 158/2/3 156/2/3 157/2/3
f 161/2/3 160/2/3 159/2/3
f 162/2/3 160/2/3 161/2/3
f 165/2/3 164/2/3 163/2/3
f 166/2/3 164/2/3 165/2/3
f 169/2/3 168/2/3 167/2/3
f 170/2/3 168/2/3 169/2/3
f 173/2/3 172/2/3 171/2/3
f 174/2/3 172/2/3 173/2/3
f 177/1/3 176/1/3 175/1/3
f 178/1/3 176/1/3 177/1/3
f 181/2/3 180/2/3 179/2/3
f 182/2/3 180/2/3 181/2/3
f 183/2/3 180/2/3 182/2/3
f 184/2/3 180/2/3 183/2/3
f 185/2/4 186/2/4 187/2/4
f 187/2/4 186/2/4 188/2/4
f 188/2/4 186/2/4 189/2/4
f 189/2/4 186/2/4 190/2/4
f 191/2/4 192/2/4 193/2/4
f 193/2/4 192/2/4 194/2/4
f 195/2/4 196/2/4 197/2/4
f 197/2/4 196/2/4 198/2/4
f 199/2/4 200/2/4 201/2/4
f 201/2/4 200/2/4 202/2/4
f 203/2/4 204/2/4 205/2/4
f 205/2/4 204/2/4 206/2/4
f 207/2/4 208/2/4 209/2/4
f 209/2/4 208/2/4 210/2/4
f 211/2/4 212/2/4 213/2/4
f 213/2/4 212/2/4 214/2/4
f 215/2/4 216/2/4 217/2/4
f 217/2/4 216/2/4 218/2/4
f 219/2/4 220/2/4 221/2/4
f 221/2/4 220/2/4 222/2/4
f 223/2/4 224/2/4 225/2/4
f 225/2/4 224/2/4 226/2/4
f 227/2/4 228/2/4 229/2/4
f 229/2/4 228/2/4 230/2/4
f 231/2/4 232/2/4 233/2/4
f 233/2/4 232/2/4 234/2/4
f 235/1/4 236/1/4 237/1/4
f 237/1/4 236/1/4 238/1/4
f 239/2/4 240/2/4 241/2/4
f 241/2/4 240/2/4 242/2/4
f 243/2/4 244/2/4 245/2/4
f 245/2/4 244/2/4 246/2/4
f 249/2/5 248/2/5 247/2/5
f 250/2/5 248/2/5 249/2/5
f 251/2/5 249/2/5 247/2/5
f 252/2/5 248/2/5 250/2/5
f 253/2/5 251/2/5 247/2/5
f 253/2/5 252/2/5 251/2/5
f 254/2/5 248/2/5 252/2/5
f 254/2/5 252/2/5 253/2/5
f 255/2/5 253/2/5 247/2/5
f 256/2/5 248/2/5 254/2/5
f 257/2/5 255/2/5 247/2/5
f 257/2/5 256/2/5 255/2/5
f 258/2/5 248/2/5 256/2/5
f 258/2/5 256/2/5 257/2/5
f 261/1/5 260/1/5 259/1/5
f 262/1/5 260/1/5 261/1/5
f 265/1/5 264/1/5 263/1/5
f 266/1/5 264/1/5 265/1/5
f 269/2/5 268/2/5 267/2/5
f 270/2/5 268/2/5 269/2/5
f 273/2/6 274/2/6 275/2/6
f 275/2/6 274/2/6 276/2/6
f 271/2/6 272/2/6 277/2/6
f 277/2/6 272/2/6 278/2/6
f 279/1/6 280/1/6 281/1/6
f 281/1/6 280/1/6 282/1/6
f 279/1/6 281/1/6 283/1/6
f 279/1/6 283/1/6 285/1/6
f 283/1/6 284/1/6 285/1/6
f 285/1/6 284/1/6 286/1/6
f 279/1/6 285/1/6 287/1/6
f 279/1/6 287/1/6 289/1/6
f 287/1/6 288/1/6 289/1/6
f 289/1/6 288/1/6 290/1/6
f 279/1/6 289/1/6 291/1/6
f 279/1/6 291/1/6 293/1/6
f 291/1/6 292/1/6 293/1/6
f 293/1/6 292/1/6 294/1/6
f 279/1/6 293/1/6 295/1/6
f 279/1/6 295/1/6 297/1/6
f 295/1/6 296/1/6 297/1/6
f 297/1/6 296/1/6 298/1/6
f 279/1/6 297/1/6 299/1/6
f 279/1/6 299/1/6 301/1/6
f 299/1/6 300/1/6 301/1/6
f 301/1/6 300/1/6 302/1/6
f 279/1/6 301/1/6 303/1/6
f 279/1/6 303/1/6 305/1/6
f 303/1/6 304/1/6 305/1/6
f 305/1/6 304/1/6 306/1/6
f 279/1/6 305/1/6 307/1/6
f 279/1/6 307/1/6 309/1/6
f 307/1/6 308/1/6 309/1/6
f 309/1/6 308/1/6 310/1/6
f 279/1/6 309/1/6 311/1/6
f 279/1/6 311/1/6 313/1/6
f 311/1/6 312/1/6 313/1/6
f 313/1/6 312/1/6 314/1/6
f 279/1/6 313/1/6 315/1/6
f 279/1/6 315/1/6 317/1/6
f 315/1/6 316/1/6 317/1/6
f 317/1/6 316/1/6 318/1/6
f 279/1/6 317/1/6 319/1/6
f 279/1/6 319/1/6 321/1/6
f 319/1/6 320/1/6 321/1/6
f 321/1/6 320/1/6 322/1/6
f 323/2/6 324/2/6 325/2/6
f 325/2/6 324/2/6 326/2/6
f 326/2/6 324/2/6 328/2/6
f 327/2/6 328/2/6 329/2/6
f 328/2/6 324/2/6 330/2/6
f 329/2/6 328/2/6 330/2/6
f 330/2/6 324/2/6 332/2/6
f 331/2/6 332/2/6 333/2/6
f 332/2/6 324/2/6 334/2/6
f 333/2/6 332/2/6 334/2/6
f 334/2/6 324/2/6 336/2/6
f 335/2/6 336/2/6 337/2/6
f 336/2/6 324/2/6 338/2/6
f 337/2/6 336/2/6 338/2/6
f 338/2/6 324/2/6 340/2/6
f 339/2/6 340/2/6 341/2/6
f 340/2/6 324/2/6 342/2/6
f 341/2/6 340/2/6 342/2/6
f 342/2/6 324/2/6 344/2/6
f 343/2/6 344/2/6 345/2/6
f 344/2/6 324/2/6 346/2/6
f 345/2/6 344/2/6 346/2/6
f 346/2/6 324/2/6 348/2/6
f 347/2/6 348/2/6 349/2/6
f 348/2/6 324/2/6 350/2/6
f 349/2/6 348/2/6 350/2/6
f 350/2/6 324/2/6 352/2/6
f 351/2/6 352/2/6 353/2/6
f 352/2/6 324/2/6 354/2/6
f 353/2/6 352/2/6 354/2/6
f 354/2/6 324/2/6 356/2/6
f 355/2/6 356/2/6 357/2/6
f 356/2/6 324/2/6 358/2/6
f 357/2/6 356/2/6 358/2/6
f 358/2/6 324/2/6 360/2/6
f 359/2/6 360/2/6 361/2/6
f 360/2/6 324/2/6 362/2/6
f 361/2/6 360/2/6 362/2/6
f 362/2/6 324/2/6 364/2/6
f 363/2/6 364/2/6 365/2/6
f 364/2/6 324/2/6 366/2/6
f 365/2/6 364/2/6 366/2/6
f 366/2/6 324/2/6 368/2/6
f 367/2/6 368/2/6 369/2/6
f 368/2/6 324/2/6 370/2/6
f 369/2/6 368/2/6 370/2/6
